<svg xmlns="http://www.w3.org/2000/svg" width="100%" height="100%"
     viewBox="0 0 428 406" xmlns:xlink="http://www.w3.org/1999/xlink">
 <g class="filter gradient">
  <!-- Tail -->
  <path d="m182.8 336.4c36.34 9.29 107.6 36.72 170-7 60.49-42.42 71.16-111.8 52-154-11.53-25.41-14.73-51.16-17.02-75.19 0 0-6.6 9.14-10.4 21.34-2.9 11.96-3.94 25.57-3.94 25.57s-1.33-6.66-6.43-25.79c-10.17-38.16-39.29-50.21-39.29-50.21 20.82 48.03 13.85 76.01-28.54 90.31-53.63 18.06-65.27 49.38-57.44 93.73 6.34 35.92 1.44 46.6-13.94 62.23-15.6 15.8-45.2 19.1-45.2 19.1z"
        class="flame" id="shippo"/>
  <path d="m374 94.47c2.12-11.93 2.64-18.61-1.8-30.26-4.44-11.63-12.22-23.52-12.22-23.52s1.76 10.43 1.91 21.13c0.1 10.72 8.1 23.42 12.1 32.65z"
        class="flame" id="flame1"/>
  <path d="m349.2 8.44c-2.89 4.94-4.94 9.24-5.58 14.45-0.65 5.24 3.18 11 3.74 18.66 3.26-7.94 3.44-9.43 4.37-16.89 0.9-7.45-3.4-9.51-2.5-16.22z"
        class="flame" id="flame2"/>
  <path d="m84.12 241.1c0 10.7 0.77 30.14-4.59 48.01-4.19 14.02 7.94 24.47 7.94 30.04 0 29.06 33.14 51.45 72.61 51.45 39.48 0 73.05-20.79 73.05-53.48 0-5.56 12.49-14.08 7.93-28-5.73-17.5-0.96-37.6-0.96-48.3 0-33.88-33.88-61.17-79.8-61.17-45.9 0-76.18 27.6-76.18 61.5z"
        fill="#DF731B" class="fur"/>
  <path stroke-linejoin="round"
        d="m83.94 239.4c0 10.7 0.95 31.76-4.41 49.63-4.19 14.02 7.94 24.47 7.94 30.04 0 29.06 33.14 51.45 72.61 51.45 39.48 0 73.05-20.79 73.05-53.48 0-5.56 12.49-14.08 7.93-28-5.73-17.5-1.79-37.6-1.79-48.3 0-33.88-33.05-61.17-78.97-61.17-45.9 0.2-76.36 26.2-76.36 60z"
        stroke="#000" stroke-linecap="round" stroke-width="4" fill="none"/>
  <path d="m203.5 239.8c54.58-1.86 102.7-35.08 105.7-34.66 3.02 0.44 15.45 19.36 16.19 24.51 0.74 5.16-19.46 21.07-35.46 30.75-22.64 13.7-52.36 22.27-73.84 26.97"
        fill="#DF731B" class="fur"/>
  <path d="m289.6 214.6c17.98-8.53 11.44-6.39 18.92-8.32 7.96 3.72 13.73 16.39 16.55 25.04-0.27 3.42-5.42 6.84-13.06 13.92-12.5-4.4-17.7-19.8-22.3-30.6z"
        fill="#332F20" class="foot"/>
  <path stroke-linejoin="round"
        d="m203.5 239.8c54.58-1.86 102.7-35.08 105.7-34.66 3.02 0.44 15.45 19.36 16.19 24.51 0.74 5.16-19.46 21.07-35.46 30.75-22.64 13.7-52.36 22.27-73.84 26.97"
        stroke="#000" stroke-linecap="round" stroke-width="4" fill="none"/>
  <path d="m122.4 230.6c-54.14-7.17-98.78-44.91-101.8-44.78-3.04 0.14-17.26 17.76-18.5 22.81-1.24 5.06 17.32 22.87 32.3 34.06 21.2 15.84 32.61 21.75 53.53 28.51"
        fill="#DF731B" class="fur"/>
  <path d="m40.62 198.6c-6.28-4.72-13.53-9.54-20.65-12.54-8.31 5.86-16.93 16.62-17.34 22.89-0.23 3.42 2.42 6.43 12.88 18.2 12.65-5.9 18.99-18.6 25.11-28.6z"
        fill="#332F20" class="foot"/>
  <path stroke-linejoin="round"
        d="m122.4 230.6c-54.14-7.17-98.78-44.91-101.8-44.78-3.04 0.14-17.26 17.76-18.5 22.81-1.24 5.06 17.32 22.87 32.3 34.06 21.2 15.84 32.61 21.75 53.53 28.51"
        stroke="#000" stroke-linecap="round" stroke-width="4" fill="none"/>
  <path d="m204.8 237.9c16.9-12.99-5.81-37.24-43.03-39.68-4.33-0.28-17.08-0.28-21.41 0-37.23 2.44-49.45 21-32.56 34 15.06 11.57 16.97 19.18 16.67 30.18-0.67 24.5-13.17 27.5-13.67 55.5-0.25 13.91 6.72 32.49 11.18 42.71 9.72 4.68 21.69 7.1 31.89 7.69 10.68 0.61 24.23-0.47 35.8-4.03 0.13-6.92-0.29-7.84 6.46-19.87 10.67-19 2.83-48.5-0.67-66-2.5-12.3 0.3-31.5 9.3-40.5z"
        fill="#ffc" class="skin"/>
  <path stroke-linejoin="round"
        d="m116.5 344.3c1.58 4.27 7.71 16.33-0.9 23.69-8.62 7.36-33.75 21.36-46.6 12.14-12.92-9.28-4.21-11.82-2.05-15.64 2.16-3.84-20.15-19.68-17.06-53.1 3.41-36.88 30.39-38.09 43.58-22.94"
        stroke="#000" stroke-linecap="round" stroke-width="4" fill="#DF731B" class="fur"/>
  <path d="m88.88 346.9c-22.09-34.18-37.8-55.32-46.64-59.05-8.84-3.72-22.43 5.94-22.84 12.2-0.42 6.26 40.64 75.45 49.58 80.08"
        fill="#DF731B" class="fur"/>
  <path d="m76.68 328.4c-15.76-23.29-27.33-37.56-34.44-40.56-8.84-3.72-22.43 5.94-22.84 12.2-0.23 3.42 10.81 27.88 24.02 48.69 13.03-3.1 27.14-10.3 33.26-20.3z"
        fill="#332F20" class="foot"/>
  <path stroke-linejoin="round"
        d="m88.88 346.9c-22.09-34.18-37.8-55.32-46.64-59.05-8.84-3.72-22.43 5.94-22.84 12.2-0.42 6.26 40.64 75.45 49.58 80.08"
        stroke="#000" stroke-linecap="round" stroke-width="4" fill="none"/>
  <path d="m197.8 346.5c-3.07 4.38-10.48 15.42-3.3 24.18 7.18 8.77 33.01 20.24 47.28 13.44 14.35-6.85 6.76-10.37 5.31-14.51-1.44-4.16 6.57-19.35 13.76-52.13 8.47-38.63-19.42-52.04-43.75-37.88-9.61 5.59-10.5 12.17-10.5 12.17-3.2 9.1-3.6 42.6-8.9 54.7z"
        fill="#DF731B" class="fur"/>
  <path stroke-linejoin="round"
        d="m197.8 346.5c-3.07 4.38-10.48 15.42-3.3 24.18 7.18 8.77 33.01 20.24 47.28 13.44 14.35-6.85 6.76-10.37 5.31-14.51-1.44-4.16 6.57-19.35 13.76-52.13 8.47-38.63-19.42-52.04-43.75-37.88-9.61 5.59-10.5 12.17-10.5 12.17"
        stroke="#000" stroke-linecap="round" stroke-width="4" fill="none"/>
  <path d="m230.8 342.4c26.87-30.57 42.66-45.93 51.95-48.32 9.3-2.38 19.67 10.78 19.17 17.04-0.5 6.25-45.56 64.51-54.26 69.56"
        fill="#DF731B" class="fur"/>
  <path d="m242.7 329.2c19-20.72 32.54-33.14 40.01-35.07 9.3-2.38 19.67 10.78 19.17 17.04-0.27 3.42-15.81 24.66-31.12 43.97-12.6-4.5-23.5-15.1-28.1-25.9z"
        fill="#332F20" class="foot"/>
  <path stroke-linejoin="round"
        d="m230.8 342.4c26.87-30.57 42.66-45.93 51.95-48.32 9.3-2.38 19.67 10.78 19.17 17.04-0.5 6.25-45.56 64.51-54.26 69.56"
        stroke="#000" stroke-linecap="round" stroke-width="4" fill="none"/>
  <!-- Back fold of scarf -->
  <path d="m113.7 225.9c-18.89 33.21 20.76 62.08 65.6 51.89 37.33-8.48 39.53-38.44 24.23-38-24.9 0.7-79.6-31.8-89.8-13.9z"
        fill="#00A33D" class="scarf"/>
  <path stroke-linejoin="round"
        d="m156.4 45.31c-9.28-8.26-15.74-12.43-24.28-17.36-8.71-5.02-24.77-10.84-27.15-8.51-2.39 2.32-12.64 34.47-13.38 51.42-0.41 9.42-4.22 35.03-5.09 42.25"
        stroke="#000" stroke-linecap="round" stroke-width="4.191" fill="#DF731B" class="fur"/>
  <path d="m137 55.18c2.32-4.79-10.71-13.96-15.45-18.21-4.59-4.12-11.54-10.55-13.22-9.52-1.68 1.04-7.47 21.6-9.61 31.2-1.19 5.34-1 8.53-1.32 12.73-0.21 2.76 0.63 7.35 2.75 5.89s7.07-6.6 19.55-15.04c12.4-8.48 16.6-5.87 17.2-7.05z"
        fill="#ffc" class="skin"/>
  <path d="m94.35 86.1l-4.54 9.08c-13.56 27.25-34.87 42.45-34.99 42.57l-0.87 0.86s5.73 5.91 7.11 8.27c-2.41 0.42-9.81 4.01-9.81 4.01s6.6 6.62 8.05 8.83c-2.24 0.67-8.36 3.86-8.36 3.86 38.18 25.6 4.62 61.53 88.49 85.86l0.04 0.01c60.52 15.11 87.6-7.75 99.52-18.26 14.57-12.84 33.07-16.29 33.27-16.37l2.21-0.9s-4.4-4.35-6.07-5.99c2.33-1.27 9.16-5 9.16-5s-5.56-4.08-7.49-5.58c2.33-1.43 9.35-5.11 9.35-5.11-5.99-9.96-10.91-17.1-8.82-56.79 2.33-44.33-26.26-72.1-69.19-82.82-36.6-9.2-84.4-10.99-107 33.42z"
        fill="#DF731B" id="head" class="fur"/>
  <path d="m53.05 166.1c5.65 2.27 16.69 16.99 18.95 27.53 2.7 12.6 22.5 47.37 74.6 58.93 61.63 13.67 80.37-11.7 93.95-22.94 7.43-6.16 22.38-12.81 33.09-15.89-1.12-1.12-4.77-5.1-5.7-5.91 0.18-0.12 2.99-1.76 3.94-2.25-17.96-15.6-33.14-25.34-65.75-33.44-36.02-8.95-35.14-27.39-85.09-28.09-5.42-0.08-12.4-1.07-25.29 1.89-8.38 1.92-22.01 7.16-34.52 16.25-3.14 1.3-8.24 3.9-8.24 3.9z"
        fill="#ffc" class="chin"/>
  <path stroke-linejoin="round"
        d="m120.8 244.4c-33.58-15.63-45.89-33.91-51.25-53.08-5.81-20.8-18.58-27.78-18.58-27.78s6.13-3.19 8.36-3.86c-1.45-2.21-8.05-8.83-8.05-8.83s7.39-3.6 9.81-4.01c-1.38-2.36-7.11-8.27-7.11-8.27l0.87-0.86c0.12-0.12 21.65-14.76 36.45-46.18 19.34-41.05 52.07-54.02 110.1-38.96 45.61 11.83 73.56 45.76 69.65 81.74-4.8 44.18 8.47 57.74 8.52 57.9 0 0-7.47 3.69-9.8 5.12 1.93 1.5 6.85 5.31 6.85 5.31s-6.83 3.73-9.15 5c1.66 1.64 6.15 6.07 6.15 6.07l-2.36 0.84c-0.18 0.07-21.32 5.66-32.36 16.93-10.24 10.45-30.34 24.84-55.47 25.98"
        stroke="#000" stroke-linecap="round" stroke-width="4.191" fill="none"/>
  <path stroke-linejoin="round"
        d="m235.5 70.79c9.72-3.28 16-5.27 27.87-6.66 10.03-1.17 24.41-2.73 25.81 0.29 1.39 3.03 1.74 33.68-1.29 50.51-3.24 17.95-13.14 39.47-19.02 49.66"
        stroke="#000" stroke-linecap="round" stroke-width="4.191" fill="#DF731B" class="fur"/>
  <path d="m235.2 81.3c-5.09-8 41.47-17 44.18-12.27 1.14 1.99-0.74 22.6-4.61 32.94-2.15 5.75-6.29 17.33-8.64 21.48-1.55 2.73-5.28 3.88-6.39 1.12-5.4-13.4-19.7-35.68-24.6-43.3z"
        fill="#ffc" class="skin"/>
  <path stroke-linejoin="round"
        d="m92.27 158.8c-0.83 17.34 23.51 21.13 29.88-0.24-3.69 20.81 30.63 40.36 52.61 16.09"
        stroke="#000" stroke-linecap="round" stroke-width="4.191" fill="none"/>
  <path stroke-linejoin="round"
        d="m129 135.4c13.45 2.5 17 8.78 8.81 17.29-8.19 8.5-18.65 6.55-23.24-4.33-4.6-11 1-15.6 14.4-13z"
        stroke="#000" stroke-linecap="round" stroke-width="4.191" fill="#332F20" class="nose"/>
  <g stroke-linejoin="round" stroke="#000" stroke-linecap="round"
     stroke-width="3.144" fill="none">
   <path d="m79.04 160.4c-22.75-10.81-41.62-5.93-48.45 2.2"/>
   <path d="m78.99 170.9c-27.57-5.06-40.26 6.65-46.8 15.08"/>
   <path d="m81.99 149.3c-25.37-17.24-42.29-12.69-49.54-9.25"/>
  </g>
  <path d="m122.1 118.9c-2.3 6.25-8.3 10.31-13.81 9.48-5.8-0.88-9.54-6.93-7.96-14 1.73-7.75 8.91-13.04 15.49-11.22 6.2 1.7 8.8 9 6.3 15.7z" class="eyeball"/>
  <path d="m112.4 113c-1.49 2.42-4.21 3.45-6.16 2.32-2-1.16-2.51-4.19-1.04-6.8 1.51-2.68 4.45-3.78 6.47-2.42 2 1.3 2.3 4.4 0.7 6.9z"
        fill="#fff" class="innereye"/>
  <path d="m196.3 133.1c-2.5 6.52-9.04 10.22-14.89 8.78-5.94-1.47-9.74-7.88-8.3-14.88 1.6-7.76 8.77-12.7 15.83-10.71 7 2 10.2 9.6 7.4 16.8z" class="eyeball"/>
  <path d="m184.8 126.3c-1.48 2.45-4.15 3.39-6.03 2.14-1.91-1.27-2.39-4.37-0.99-6.98 1.45-2.71 4.31-3.81 6.31-2.37 1.9 1.5 2.2 4.8 0.7 7.3z"
        fill="#fff" class="innereye"/>
  <path stroke-linejoin="round"
        d="m122 159.2c-0.36 14.17 8.09 19.45 14.83 23.47-3.68 8.55-11.22 13.81-18.7 12.49-8.09-1.43-12.94-9.16-13.68-21.94 6.1 0.9 15.1-4.8 17.6-14.1z"
        stroke="#000" stroke-linecap="round" stroke-width="4.192" fill="#FF5147"/>
  <g stroke-linejoin="round" stroke="#000" stroke-linecap="round"
     stroke-width="3.144" fill="none">
   <path d="m199.9 187.2c35.65-0.12 51.21 27.46 51.21 27.46"/>
   <path d="m204.4 175.6c18.33-0.67 42.83 4.83 54 21"/>
   <path d="m201.6 167.9c25.63-6.91 48.94 0.2 62.65 9.18"/>
  </g>
  <!-- Front fold of scarf -->
  <path d="m154.3 254.9c8.16 16.88 13.55 49.06 14.89 55.19 3.55 16.34 33.15 2.12 28.96-15.33-3.41-14.2-10.34-30.77-19.43-41.56-9.2-10.8-27.4-4.2-24.5 1.7z"
        fill="#00A33D" class="scarf"/>
  <!-- Strings from scarf -->
  <g stroke-linejoin="round" stroke="#005922" stroke-linecap="round"
     stroke-width="3" fill="none">
   <path d="m172.2 312.1c1.45 5.81 1.45 12.59 0.97 16.46"/>
   <path d="m180.4 313.6c1.45 5.81 1.45 11.13 0.97 15.01"/>
   <path d="m186.7 311.2c1.45 5.81 2.42 11.13 1.94 15.01"/>
   <path d="m193.5 307.3c1.45 5.81 0.97 9.68 0.48 13.56"/>
   <path d="m198.3 297.6c1.45 5.81 1.45 12.59 0.97 16.46"/>
   <path d="m198.3 297.6c1.45 5.81 1.45 12.59 0.97 16.46"/>
  </g>
  <!-- Eyelids -->
  <path id="leyelid" d="M122.9,117.76c0.55-6.08,0.34-8.18-1.41-10.97c-1.62-2.59-2.91-4.34-6.54-4.89
	    c-3.34-0.51-5.59,0.78-8.33,2.5c-2.33,1.47-4.19,3.84-6.44,8.64c1.81-8.09,9.3-13.61,16.16-11.71
	    C122.81,103.11,125.5,110.69,122.9,117.76z"
	    fill="#DF731B" class="fur"/>
  <use xlink:href="#leyelid" transform="translate(67.8 12.84) scale(1.05 1)" id="reyelid"/>
  <!-- Gradients -->
  <defs>
   <!-- Tail gradients -->
   <linearGradient id="flameGrad1" y2="125.2" gradientUnits="userSpaceOnUse"
                   x2="-2123" gradientTransform="matrix(-1 0 0 1 -1753 0)"
                   y1="343.6" x1="-2028">
    <stop stop-color="#BB180D" offset="0"/>
    <stop stop-color="#C7120D" offset=".1067"/>
    <stop stop-color="#CD250C" offset=".1653"/>
    <stop stop-color="#DB550A" offset=".2836"/>
    <stop stop-color="#F09A06" offset=".4326"/>
    <stop stop-color="#FED400" offset=".6404"/>
    <stop stop-color="#FEF528" offset=".7978"/>
    <stop stop-color="#FFFC94" offset=".9166"/>
    <stop stop-color="#FFFFC7" offset=".9775"/>
   </linearGradient>
   <linearGradient id="flameGrad2" y2="2083" gradientUnits="userSpaceOnUse"
                   x2="3372"
                   gradientTransform="matrix(-.9861 .1663 -.1663 -.9861 4045 1536)"
                   y1="2351" x1="3251">
    <stop stop-color="#B9120D" offset="0"/>
    <stop stop-color="#BB180D" offset=".078"/>
    <stop stop-color="#C0290C" offset=".1822"/>
    <stop stop-color="#C8450A" offset=".3013"/>
    <stop stop-color="#D36C08" offset=".4314"/>
    <stop stop-color="#E29E05" offset=".5706"/>
    <stop stop-color="#F4DA02" offset=".7151"/>
    <stop stop-color="#FEFD00" offset=".7921"/>
    <stop stop-color="#FEFD07" offset=".8136"/>
    <stop stop-color="#FEFD1B" offset=".8455"/>
    <stop stop-color="#FEFE3C" offset=".8837"/>
    <stop stop-color="#FFFE69" offset=".9268"/>
    <stop stop-color="#FFFFA3" offset=".9736"/>
    <stop stop-color="#FFFFC7" offset="1"/>
   </linearGradient>
   <linearGradient id="flameGrad3" y2="585" gradientUnits="userSpaceOnUse"
                   x2="-1817"
                   gradientTransform="matrix(.9924 .1232 -.1232 .9924 2183 -264.3)"
                   y1="929.3" x1="-1973">
    <stop stop-color="#B9120D" offset="0"/>
    <stop stop-color="#BB180D" offset=".078"/>
    <stop stop-color="#C0290C" offset=".1822"/>
    <stop stop-color="#C8450A" offset=".3013"/>
    <stop stop-color="#D36C08" offset=".4314"/>
    <stop stop-color="#E29E05" offset=".5706"/>
    <stop stop-color="#F4DA02" offset=".7151"/>
    <stop stop-color="#FEFD00" offset=".7921"/>
    <stop stop-color="#FEFD07" offset=".8136"/>
    <stop stop-color="#FEFD1B" offset=".8455"/>
    <stop stop-color="#FEFE3C" offset=".8837"/>
    <stop stop-color="#FFFE69" offset=".9268"/>
    <stop stop-color="#FFFFA3" offset=".9736"/>
    <stop stop-color="#FFFFC7" offset="1"/>
   </linearGradient>
   <style>
    .flame {
	  fill: #ffd63e;
	  -moz-transition: fill 1.5s;
	  -webkit-transition: fill 1.5s;
	  -ms-transition: fill 1.5s;
	  -o-transition: fill 1.5s;
	  transition: fill 1.5s;
	}
    .gradient #shippo {
	  fill: url(#flameGrad1);
	}
    .gradient #flame1 {
	  fill: url(#flameGrad2);
	}
    .gradient #flame2 {
	  fill: url(#flameGrad3);
	}
   </style>
  </defs>
  <!-- Filters -->
  <defs>
   <!-- Red glow for tail -->
   <filter id="redglow" x="-20%" width="140%">
    <feGaussianBlur in="SourceAlpha" stdDeviation="8" result="blur"/>
    <feFlood flood-color="red" result="colour"/>
    <feComposite in="colour" in2="blur" operator="in"/>
    <feBlend in="SourceGraphic" mode="normal"/>
   </filter>
   <filter xlink:href="#redglow" id="wideredglow" x="-90%" width="280%" y="-20%"
           height="140%"/>
   <filter xlink:href="#redglow" id="vwideredglow" x="-160%" width="420%"
           y="-30%" height="160%"/>
   <!-- Blur for shadow -->
   <style>
    .filter #shippo {
	  filter: url(#redglow);
	}
    .filter #flame1 {
	  filter: url(#wideredglow);
	}
    .filter #flame2 {
	  filter: url(#vwideredglow);
	}
   </style>
  </defs>
 </g>
</svg>
